<?xml version="1.0" encoding="UTF-8"?>
<svg width="960px" height="960px" viewBox="0 0 960 960" version="1.1" xmlns="http://www.w3.org/2000/svg" xmlns:xlink="http://www.w3.org/1999/xlink">
    <title>com.aeotec/drivers/door-sensor-1/assets/icon</title>
    <g id="com.aeotec/drivers/door-sensor-1/assets/icon" stroke="none" stroke-width="1" fill="none" fill-rule="evenodd">
        <path d="M342.158291,25.8826064 C361.37969,20.9949812 382.811404,20.7174024 402.502973,25.1462734 C420.143294,29.1125379 435.217682,36.4285984 446.861428,45.9426324 C459.581199,56.3358799 468.327788,69.3733523 472.39656,83.9189179 C474.749634,91.0254714 477.31859,98.7492995 480.106077,107.113461 L480.106077,107.113461 L480.321359,107.760413 C499.024713,163.966399 526.658996,247.012205 561.25388,357.701289 L561.326,357.934 L561.44648,357.915714 C588.144534,353.79655 614.502075,356.585572 635.429009,365.442934 L636.156807,365.754372 C665.118025,378.272372 681.649495,400.152888 684.753436,426.006284 C687.538723,449.211279 677.617263,476.068128 656.124436,497.237516 C643.424226,509.745096 628.198995,519.767063 610.624088,527.066933 C610.65899,535.805927 609.138497,544.687198 606.064414,553.481424 C601.248375,567.258978 592.541967,580.892803 579.968219,593.143807 C570.871026,602.010388 560.037048,609.919213 547.968619,616.594093 L547.82,616.675 L548.723548,616.626614 C577.143514,615.13746 602.655737,619.381054 623.543962,628.695359 L624.334959,629.051503 C639.809756,636.085503 651.741247,645.759882 659.90767,656.925942 C668.619344,668.837532 673.221219,682.520063 673.256367,697.173354 C673.346573,698.141463 673.414403,699.073808 673.444178,699.969667 L673.444178,699.969667 L673.363284,702.396979 C672.768226,710.708232 670.550269,719.453172 666.562305,728.434089 L666.562305,728.434089 L693.313277,814.772125 C699.118799,833.292519 694.584023,854.865708 674.873904,876.620446 C659.219931,893.878789 634.321583,909.948311 604.376337,921.332728 C576.032978,932.115607 545.163593,938 517.479018,938 C484.33105,938 458.391983,929.286063 443.228252,915.841634 C433.645447,907.355937 427.950971,897.300263 425.780337,886.21257 L425.780337,886.21257 L405.125,794.856 L404.986353,794.73054 C394.194233,784.824484 379.102937,763.638722 377.553928,745.287309 L377.506393,744.662811 C377.004647,737.202034 377.716338,729.512567 379.677004,721.790877 C380.919399,716.910117 382.683382,712.002677 384.954946,707.116203 L384.985,707.051 L383.932222,707.07367 C383.504001,707.080822 383.076158,707.086184 382.648716,707.089759 L381.367619,707.09512 C366.845024,707.09512 352.815726,705.0104 340.117572,700.982184 C312.691168,692.265795 294.813357,675.549935 287.615004,655.833857 C283.480088,644.510487 283.004788,632.211319 286.202223,620.000645 C289.088483,608.978315 295.026502,597.970744 304.04316,588.106946 C313.789224,577.442011 326.426754,568.368864 341.404714,561.448084 L342.118,561.121 L341.202347,557.151893 C303.628965,394.098796 278.781043,260.60187 257.591503,140.55562 L256.937313,136.847121 C256.842883,136.311487 256.748429,135.77558 256.655234,135.23887 C256.642216,134.633049 256.635018,134.026991 256.633625,133.420701 C256.575107,107.950274 266.763648,82.8445305 288.276265,58.2915166 C301.458008,42.8738853 320.009032,31.5208348 342.158291,25.8826064 Z" id="Path" stroke="#000000" stroke-width="40" stroke-linejoin="round"></path>
        <path d="M586.735985,401.053333 C597.650248,401.053333 607.925128,402.829284 616.882404,406.421348 C624.069117,409.303629 629.910715,413.173068 634.117569,417.916844 C638.02825,422.326646 640.478323,427.484726 641.230643,433.201207 C642.830599,445.335978 636.788998,458.166423 625.189912,469.582412 C613.678887,480.917731 597.5045,489.8082 579.703591,494.72676 L579.703591,494.72676 L559.092513,500.430223 L563.327703,511.058088 C563.499682,511.490599 563.67212,511.923111 563.844472,512.355403 C564.386029,513.713738 564.926806,515.069835 565.448977,516.416723 C568.358875,523.850495 568.401306,531.802226 565.881932,539.743927 C563.166839,548.302585 557.549107,556.806158 549.379049,564.766352 C532.299361,581.410968 506.525391,593.212397 478.762562,597.334088 L478.762562,597.334088 L477.263407,597.559593 C474.291155,597.996609 471.318903,598.441696 468.346651,598.886785 L468.346651,598.886785 L459.488567,600.233712 L460.67718,609.093269 C460.823027,610.194579 460.984929,611.295913 461.146228,612.391496 C461.212635,612.842557 461.278902,613.292604 461.343708,613.741206 L461.343708,613.741206 L461.627213,615.667539 C462.91463,624.464782 458.446121,633.714342 450.066833,641.968483 C447.947761,644.056911 445.603986,646.035113 443.087709,647.90784 C432.335107,655.227716 418.633839,661.035577 404.408333,664.117785 C398.346274,665.429962 392.246272,666.286955 386.212674,666.687649 C375.481956,667.12022 365.136693,665.9217 355.973867,663.054448 C342.828795,658.94136 333.323803,651.925033 330.12814,642.49621 C328.677698,638.209923 328.709827,633.695732 330.071451,629.173004 C331.591167,624.125164 334.707905,619.10484 339.209646,614.277438 C348.589768,604.216377 362.928908,596.299714 379.464398,591.7881 C380.848975,591.41297 382.238214,591.028613 383.635602,590.641966 C384.081015,590.518723 384.527265,590.395249 384.974553,590.271767 C385.466126,590.137118 385.959232,590.001708 386.453395,589.866006 C387.550484,589.564735 388.652837,589.262007 389.760288,588.961723 L389.760288,588.961723 L400.637189,586.003435 L395.456423,576.003606 C394.37809,573.910968 393.465408,572.139798 392.553159,570.362326 L392.553159,570.362326 L392.262268,569.789067 C388.576538,562.608996 387.725919,554.771259 389.527614,546.828816 C391.458979,538.314747 396.35413,529.737046 403.886398,521.580698 C420.45174,503.634102 447.847918,490.401906 477.038787,485.94847 L477.038787,485.94847 L478.810196,485.681751 C481.920648,485.206687 485.031079,484.731573 488.16144,484.272055 L488.16144,484.272055 L497.083452,482.957236 L495.915311,474.447691 L493.875763,479.070867 L495.166403,471.79228 L495.739534,473.105836 C495.612789,472.166534 495.493163,471.220186 495.375585,470.266918 L495.200121,468.831844 L494.93256,466.652499 C493.534632,455.438661 498.718328,443.465336 508.745199,432.738004 C521.229347,419.384382 539.494189,409.349356 560.108588,404.351199 C569.175019,402.149204 578.149467,401.053333 586.735985,401.053333 Z" id="Path" stroke="#000000" stroke-width="20" stroke-linecap="round" stroke-linejoin="round"></path>
        <path d="M640.043085,857.860306 C628.873429,870.155195 610.735802,881.468997 588.981799,889.728211 C567.429867,897.910887 544.01052,902.419709 523.036929,902.426667 C523.022993,902.426667 523.016025,902.426667 523.002089,902.426667 C501.805524,902.426667 485.019684,897.896971 475.724412,889.672547 C471.829316,886.228308 469.453239,882.283089 468.651922,877.941261 L468.261716,876.222621 L468.540434,876.166957 C467.397687,869.946453 469.286007,862.842276 474.003323,855.633728 C483.201044,841.578451 502.460513,827.884993 526.834473,818.053258 C551.772838,808.01278 579.561104,803.016895 603.105875,804.32501 C625.006205,805.549628 641.792045,812.507686 648.000507,822.944772 C648.857567,824.38509 649.540428,825.888031 650.01425,827.411845 C650.01425,827.411845 650.01425,827.418804 650.01425,827.418804 L650.042122,827.411845 L650.536848,829.005241 C653.888442,839.616279 646.676592,850.547388 640.043085,857.860306 Z" id="Path" fill="#000000"></path>
        <line x1="321.441307" y1="67.3066667" x2="416.72079" y2="480.951561" id="Path-15" stroke="#000000" stroke-width="20" stroke-linecap="round" stroke-linejoin="round"></line>
        <line x1="447.867456" y1="690.24" x2="476.094123" y2="809.96" id="Path-18" stroke="#000000" stroke-width="20" stroke-linecap="round" stroke-linejoin="round"></line>
        <line x1="590.947456" y1="653.253333" x2="622.094123" y2="771.026667" id="Path-19" stroke="#000000" stroke-width="20" stroke-linecap="round" stroke-linejoin="round"></line>
        <path d="M428.634509,833.782081 L413.616843,762.250397 C415.303984,717.800853 447.786457,686.784294 511.064261,669.200718 C574.342065,651.617143 619.813154,660.773348 647.477529,696.669335 L662.861386,747.685412" id="Path-20" stroke="#000000" stroke-width="20" stroke-linecap="round" stroke-linejoin="round"></path>
        <path d="M434.092448,878.077063 C435.884523,833.62752 470.38729,802.610961 537.600749,785.027385 C604.814207,767.44381 653.113436,776.600015 682.498436,812.496001" id="Path-20" stroke="#000000" stroke-width="20" stroke-linecap="round" stroke-linejoin="round"></path>
        <path d="M572.733803,465.164936 C589.940783,461.820238 602.642546,452.692279 601.103985,444.777068 C599.565423,436.861857 584.36916,433.156725 567.16218,436.501423 C549.9552,439.846121 537.253437,448.97408 538.791998,456.889291 C540.330559,464.804502 555.526823,468.509634 572.733803,465.164936 Z" id="Oval" fill="#000000"></path>
        <path d="M398.424154,639.299483 C412.189738,636.623724 422.351149,629.321357 421.1203,622.989188 C419.889451,616.657019 407.73244,613.692913 393.966856,616.368672 C380.201272,619.04443 370.039862,626.346798 371.270711,632.678967 C372.501559,639.011135 384.65857,641.975241 398.424154,639.299483 Z" id="Oval" fill="#000000"></path>
    </g>
</svg>