<svg xmlns:dc="http://purl.org/dc/elements/1.1/" xmlns:cc="http://creativecommons.org/ns#"
    xmlns:rdf="http://www.w3.org/1999/02/22-rdf-syntax-ns#" xmlns:svg="http://www.w3.org/2000/svg"
    xmlns="http://www.w3.org/2000/svg" xmlns:sodipodi="http://sodipodi.sourceforge.net/DTD/sodipodi-0.dtd"
    xmlns:inkscape="http://www.inkscape.org/namespaces/inkscape" viewBox="0 0 16.933333 16.933333" version="1.1"
    x="0px" y="0px">
    <g transform="translate(0,-280.06665)">
        <path
            style="color:#000000;font-style:normal;font-variant:normal;font-weight:normal;font-stretch:normal;font-size:medium;line-height:normal;font-family:sans-serif;font-variant-ligatures:normal;font-variant-position:normal;font-variant-caps:normal;font-variant-numeric:normal;font-variant-alternates:normal;font-feature-settings:normal;text-indent:0;text-align:start;text-decoration:none;text-decoration-line:none;text-decoration-style:solid;text-decoration-color:#000000;letter-spacing:normal;word-spacing:normal;text-transform:none;writing-mode:lr-tb;direction:ltr;text-orientation:mixed;dominant-baseline:auto;baseline-shift:baseline;text-anchor:start;white-space:normal;shape-padding:0;clip-rule:nonzero;display:inline;overflow:visible;visibility:visible;opacity:1;isolation:auto;mix-blend-mode:normal;color-interpolation:sRGB;color-interpolation-filters:linearRGB;solid-color:#000000;solid-opacity:1;vector-effect:none;fill:#000000;fill-opacity:1;fill-rule:nonzero;stroke:none;stroke-width:0.5291667;stroke-linecap:round;stroke-linejoin:round;stroke-miterlimit:4;stroke-dasharray:none;stroke-dashoffset:0;stroke-opacity:1;paint-order:stroke fill markers;color-rendering:auto;image-rendering:auto;shape-rendering:auto;text-rendering:auto;enable-background:accumulate"
            d="m 2.8888655,280.78472 c -0.4351602,0 -0.7947818,0.35756 -0.7947818,0.79272 v 13.75782 c 0,0.43516 0.359619,0.7953 0.7947818,0.7953 H 8.709183 v -0.52969 H 2.8888655 c -0.1511564,0 -0.2656152,-0.11445 -0.2656152,-0.26561 v -13.75782 c 0,-0.15116 0.1144588,-0.26355 0.2656152,-0.26355 h 6.8791663 c 0.151157,0 0.2635522,0.11239 0.2635522,0.26355 v 8.7328 H 7.9143984 c -0.3980418,-0.44493 -0.9129077,-0.79442 -1.5177346,-0.7953 -1.1658706,0 -2.1171827,0.95183 -2.1171853,2.1177 2.6e-6,1.16587 0.9513147,2.11719 2.1171853,2.11719 0.6056339,-2.1e-4 1.1212195,-0.3498 1.5198037,-0.7953 h 2.1151165 v 2.38073 c 0,0.15116 -0.1123982,0.26561 -0.2635522,0.26561 H 9.2383496 v 0.52969 h 0.5296822 c 0.4351632,0 0.7927192,-0.36014 0.7927192,-0.7953 v -2.38073 h 3.17603 c 0.58174,0 1.058334,-0.4766 1.058334,-1.05834 v -0.52761 c 0,-0.58174 -0.476594,-1.05834 -1.058334,-1.05834 h -3.17603 v -8.7328 c 0,-0.43516 -0.357558,-0.79272 -0.7927192,-0.79272 z m 0.7673949,1.58802 a 0.26460982,0.26460982 0 0 0 -0.2382282,0.26355 v 1.05885 a 0.26460982,0.26460982 0 0 0 0.2635515,0.26355 h 1.0588492 a 0.26460982,0.26460982 0 0 0 0.2635488,-0.26355 v -1.05885 A 0.26460982,0.26460982 0 0 0 4.7404329,282.37274 H 3.6815837 a 0.26460982,0.26460982 0 0 0 -0.025321,0 z m 2.1156348,0 a 0.26460982,0.26460982 0 0 0 -0.2387468,0.26355 v 1.05885 a 0.26460982,0.26460982 0 0 0 0.2661338,0.26355 h 1.0583334 a 0.26460982,0.26460982 0 0 0 0.2635514,-0.26355 v -1.05885 A 0.26460982,0.26460982 0 0 0 6.8576156,282.37274 H 5.7992822 a 0.26460982,0.26460982 0 0 0 -0.027387,0 z m 2.1171826,0 a 0.26460982,0.26460982 0 0 0 -0.2387441,0.26355 v 1.05885 a 0.26460982,0.26460982 0 0 0 0.2661338,0.26355 h 1.0562643 a 0.26460982,0.26460982 0 0 0 0.2656178,-0.26355 v -1.05885 A 0.26460982,0.26460982 0 0 0 8.9727318,282.37274 H 7.9164675 a 0.26460982,0.26460982 0 0 0 -0.02739,0 z m -3.9413604,0.5271 h 0.5291667 v 0.52917 H 3.9477174 Z m 2.1151163,0 h 0.5291666 v 0.52917 H 6.0628337 Z m 2.1171826,0 H 8.709183 v 0.52917 H 8.1800163 Z m -4.4984326,1.58802 a 0.26460982,0.26460982 0 0 0 -0.2635515,0.26561 v 1.05886 a 0.26460982,0.26460982 0 0 0 0.2635515,0.26354 h 1.0588492 a 0.26460982,0.26460982 0 0 0 0.2635488,-0.26354 v -1.05886 a 0.26460982,0.26460982 0 0 0 -0.2635488,-0.26561 z m 2.1176985,0 a 0.26460982,0.26460982 0 0 0 -0.2661338,0.26561 v 1.05886 a 0.26460982,0.26460982 0 0 0 0.2661338,0.26354 h 1.0583334 a 0.26460982,0.26460982 0 0 0 0.2635514,-0.26354 v -1.05886 a 0.26460982,0.26460982 0 0 0 -0.2635514,-0.26561 z m 2.1171853,0 a 0.26460982,0.26460982 0 0 0 -0.2661338,0.26561 v 1.05886 a 0.26460982,0.26460982 0 0 0 0.2661338,0.26354 h 1.0562643 a 0.26460982,0.26460982 0 0 0 0.2656178,-0.26354 v -1.05886 a 0.26460982,0.26460982 0 0 0 -0.2656178,-0.26561 z m -3.9687501,0.52917 h 0.5291667 v 0.52916 H 3.9477174 Z m 2.1151163,0 h 0.5291666 v 0.52916 H 6.0628337 Z m 2.1171826,0 H 8.709183 v 0.52916 H 8.1800163 Z m 3.6788457,1.11827 c -0.194694,0.006 -0.389475,0.0308 -0.581361,0.0734 a 0.26491499,0.26491499 0 1 0 0.113172,0.51728 c 0.639514,-0.14193 1.316062,-0.0421 1.892906,0.28939 0.58637,0.33702 1.015842,0.88194 1.210779,1.51929 a 0.26460985,0.26460985 0 1 0 0.505912,-0.154 c -0.233963,-0.76493 -0.749818,-1.41994 -1.453139,-1.82417 -0.518927,-0.29826 -1.104194,-0.44055 -1.688269,-0.42117 z m -8.1772783,0.46974 a 0.26460982,0.26460982 0 0 0 -0.2635515,0.26355 v 1.05885 a 0.26460982,0.26460982 0 0 0 0.2635515,0.26562 h 1.0588492 a 0.26460982,0.26460982 0 0 0 0.2635488,-0.26562 v -1.05885 a 0.26460982,0.26460982 0 0 0 -0.2635488,-0.26355 z m 2.1176985,0 a 0.26460982,0.26460982 0 0 0 -0.2661338,0.26355 v 1.05885 a 0.26460982,0.26460982 0 0 0 0.2661338,0.26562 h 1.0583334 a 0.26460982,0.26460982 0 0 0 0.2635514,-0.26562 v -1.05885 a 0.26460982,0.26460982 0 0 0 -0.2635514,-0.26355 z m 2.1171853,0 a 0.26460982,0.26460982 0 0 0 -0.2661338,0.26355 v 1.05885 a 0.26460982,0.26460982 0 0 0 0.2661338,0.26562 h 1.0562643 a 0.26460982,0.26460982 0 0 0 0.2656178,-0.26562 v -1.05885 a 0.26460982,0.26460982 0 0 0 -0.2656178,-0.26355 z m 4.1459985,0.32453 c -0.226703,-0.009 -0.454919,0.0139 -0.677478,0.0698 a 0.26460985,0.26460985 0 1 0 0.128674,0.51212 c 0.461487,-0.11576 0.953823,-0.0498 1.373042,0.1912 0.420013,0.2414 0.725948,0.63586 0.85783,1.09399 a 0.26519754,0.26519754 0 1 0 0.509529,-0.14676 c -0.169603,-0.58918 -0.563658,-1.09597 -1.103291,-1.40612 -0.336635,-0.19348 -0.71047,-0.29888 -1.088306,-0.31419 z m -8.1147486,0.20464 h 0.5291667 v 0.52968 H 3.9477174 Z m 2.1151163,0 h 0.5291666 v 0.52968 H 6.0628337 Z m 2.1171826,0 H 8.709183 v 0.52968 H 8.1800163 Z m 3.8080357,0.58756 c -0.160303,-0.002 -0.321413,0.0198 -0.478007,0.0667 a 0.26460982,0.26460982 0 1 0 0.150379,0.50591 c 0.278583,-0.0834 0.579864,-0.0493 0.83199,0.0956 0.252243,0.14498 0.433705,0.38739 0.501777,0.67025 a 0.26460982,0.26460982 0 1 0 0.513665,-0.12299 c -0.102039,-0.424 -0.373787,-0.78883 -0.751893,-1.00614 -0.236207,-0.13576 -0.50074,-0.20596 -0.767911,-0.20929 z m 0.0615,0.81442 c -0.169434,0.0131 -0.330605,0.10688 -0.420645,0.26355 -0.144071,0.25066 -0.05739,0.57785 0.193267,0.72192 0.250669,0.14407 0.578887,0.0553 0.722956,-0.19534 0.144068,-0.25066 0.05532,-0.57837 -0.195337,-0.72243 -0.094,-0.054 -0.19858,-0.0756 -0.300241,-0.0677 z m -5.6528832,1.50843 c 0.2270839,2.7e-4 0.3823176,0.17331 0.5694733,0.29043 -0.029131,0.006 -0.056031,0.0176 -0.084233,0.0263 -0.3663844,0.11274 -0.6514703,0.41503 -0.7291546,0.79478 -0.00106,0.005 -5.292e-4,0.0105 -0.00159,0.0155 -6.62e-5,2.6e-4 -5.292e-4,7.9e-4 -5.292e-4,0.001 -0.012779,0.0622 -0.019632,0.12667 -0.019632,0.19379 -2.6e-6,7.9e-4 0,10e-4 0,0.002 v 0.52761 c 0,0.067 0.00688,0.13156 0.019632,0.19379 0.02712,0.1443 0.082069,0.27924 0.1617477,0.39687 0.038179,0.0563 0.081709,0.10862 0.1297067,0.15658 0.1410732,0.14108 0.3217836,0.24174 0.5229649,0.28577 -0.1870075,0.11667 -0.3417914,0.29087 -0.5684388,0.29094 -0.8798878,0 -1.588016,-0.70761 -1.5880186,-1.5875 2.6e-6,-0.87988 0.7081308,-1.58801 1.5880186,-1.58801 z m 0.7932314,0.79479 h 6.5468858 c 0.297733,0 0.529167,0.23143 0.529167,0.52917 v 0.52761 c 0,0.29773 -0.231434,0.52917 -0.529167,0.52917 H 10.297199 7.9164675 7.1898952 c -0.037042,0 -0.073329,-0.003 -0.1080029,-0.0103 -1.641e-4,-3e-5 -2.646e-4,4e-5 -5.292e-4,0 -0.034663,-0.007 -0.068083,-0.0174 -0.099737,-0.0305 -1.403e-4,-6e-5 -2.646e-4,5e-5 -5.292e-4,0 -0.1271561,-0.0527 -0.2273644,-0.15294 -0.2800853,-0.28009 -0.026352,-0.0636 -0.040825,-0.13382 -0.040825,-0.20826 v -0.52968 c 0.00106,-0.29672 0.2326534,-0.5271 0.5296826,-0.5271 z" />
    </g>
</svg>