<svg id="Capa_1" enable-background="new 0 0 512 512" height="512" viewBox="0 0 512 512" width="512" xmlns="http://www.w3.org/2000/svg"><circle cx="96" cy="196" r="15"/><circle cx="156" cy="196" r="15"/><circle cx="156" cy="376" r="15"/><circle cx="96" cy="136" r="15"/><circle cx="156" cy="136" r="15"/><path d="m476 331h-245v-316c0-8.284-6.716-15-15-15h-180c-8.284 0-15 6.716-15 15v482c0 8.284 6.716 15 15 15h180c8.284 0 15-6.716 15-15v-76h245c8.284 0 15-6.716 15-15v-60c0-8.284-6.716-15-15-15zm-425-240h150v150h-150zm150-61v31h-150v-31zm-150 452v-211h150v45.004c-15.883-11.955-36.209-17.298-56.922-14.076-15.829 2.462-30.787 10.319-42.118 22.123-11.309 11.78-18.564 27.031-20.431 42.942-2.512 21.41 4.202 42.856 18.419 58.839 14.228 15.995 34.658 25.168 56.052 25.168 16.435 0 32.193-5.474 45-15.096v46.096zm410-91h-253.093c-5.351 0-10.297 2.851-12.979 7.481-8.047 13.89-22.963 22.519-38.928 22.519-12.836 0-25.097-5.506-33.637-15.107-8.655-9.729-12.575-22.303-11.038-35.404 2.292-19.539 18.006-35.906 37.364-38.917 2.409-.375 4.809-.558 7.183-.558 16.034 0 30.863 8.361 39.056 22.505 2.682 4.631 7.628 7.481 12.979 7.481h253.093z"/><path d="m307.82 204.181c2.929 2.929 6.768 4.393 10.606 4.393s7.678-1.465 10.606-4.394c29.241-29.243 29.241-76.823 0-106.066-5.857-5.857-15.355-5.858-21.213 0s-5.858 15.355 0 21.213c17.545 17.545 17.545 46.095 0 63.64-5.857 5.858-5.857 15.356.001 21.214z"/><path d="m381 151.147c0 28.046-10.922 54.414-30.754 74.246-5.858 5.857-5.858 15.355 0 21.213 2.929 2.929 6.768 4.394 10.606 4.394s7.678-1.465 10.606-4.394c25.499-25.498 39.542-59.399 39.542-95.459s-14.043-69.961-39.541-95.459c-5.857-5.858-15.355-5.858-21.213 0s-5.858 15.355 0 21.213c19.832 19.832 30.754 46.2 30.754 74.246z"/><circle cx="276" cy="151.147" r="15"/></svg>