<svg xmlns:dc="http://purl.org/dc/elements/1.1/" xmlns:cc="http://creativecommons.org/ns#"
    xmlns:rdf="http://www.w3.org/1999/02/22-rdf-syntax-ns#" xmlns:svg="http://www.w3.org/2000/svg"
    xmlns="http://www.w3.org/2000/svg" xmlns:sodipodi="http://sodipodi.sourceforge.net/DTD/sodipodi-0.dtd"
    xmlns:inkscape="http://www.inkscape.org/namespaces/inkscape" viewBox="0 0 16.933333 16.933333" version="1.1"
    x="0px" y="0px">
    <g transform="translate(0,-280.06665)">
        <path
            style="color:#000000;font-style:normal;font-variant:normal;font-weight:normal;font-stretch:normal;font-size:medium;line-height:normal;font-family:sans-serif;font-variant-ligatures:normal;font-variant-position:normal;font-variant-caps:normal;font-variant-numeric:normal;font-variant-alternates:normal;font-feature-settings:normal;text-indent:0;text-align:start;text-decoration:none;text-decoration-line:none;text-decoration-style:solid;text-decoration-color:#000000;letter-spacing:normal;word-spacing:normal;text-transform:none;writing-mode:lr-tb;direction:ltr;text-orientation:mixed;dominant-baseline:auto;baseline-shift:baseline;text-anchor:start;white-space:normal;shape-padding:0;clip-rule:nonzero;display:inline;overflow:visible;visibility:visible;opacity:1;isolation:auto;mix-blend-mode:normal;color-interpolation:sRGB;color-interpolation-filters:linearRGB;solid-color:#000000;solid-opacity:1;vector-effect:none;fill:#000000;fill-opacity:1;fill-rule:nonzero;stroke:none;stroke-width:0.5291667;stroke-linecap:square;stroke-linejoin:round;stroke-miterlimit:4;stroke-dasharray:none;stroke-dashoffset:0;stroke-opacity:1;paint-order:stroke fill markers;color-rendering:auto;image-rendering:auto;shape-rendering:auto;text-rendering:auto;enable-background:accumulate"
            d="m 5.6024862,280.36143 c -0.2885811,0 -0.5291667,0.2411 -0.5291667,0.52968 v 5.3883 h 0.5291667 v -5.3883 H 15.657169 v 15.08177 H 5.6024862 V 286.8091 H 5.0733195 v 9.16378 c 0,0.28858 0.2405856,0.52968 0.5291667,0.52968 H 15.657169 c 0.288581,0 0.529683,-0.2411 0.529683,-0.52968 v -15.08177 c 0,-0.28858 -0.241102,-0.52968 -0.529683,-0.52968 z m 1.8515648,1.58801 a 0.26460982,0.26460982 0 0 0 -0.2635489,0.26355 v 1.05885 a 0.26460982,0.26460982 0 0 0 0.2635489,0.26562 h 1.0588519 a 0.26460982,0.26460982 0 0 0 0.2656152,-0.26562 v -1.05885 a 0.26460982,0.26460982 0 0 0 -0.2656152,-0.26355 z m 2.646352,0 a 0.26460982,0.26460982 0 0 0 -0.2635512,0.26355 v 1.05885 a 0.26460982,0.26460982 0 0 0 0.2635512,0.26562 h 1.058849 a 0.26460982,0.26460982 0 0 0 0.263549,-0.26562 v -1.05885 a 0.26460982,0.26460982 0 0 0 -0.263549,-0.26355 z m 2.646865,0 a 0.26460982,0.26460982 0 0 0 -0.265615,0.26355 v 1.05885 a 0.26460982,0.26460982 0 0 0 0.265615,0.26562 h 1.058334 a 0.26460982,0.26460982 0 0 0 0.263551,-0.26562 v -1.05885 a 0.26460982,0.26460982 0 0 0 -0.263551,-0.26355 z m -10.820527,0.0956 a 0.26460985,0.26460985 0 0 0 -0.2051553,0.0884 c -0.5466159,0.58402 -0.85524449,1.35661 -0.85524449,2.16783 0,0.79803 0.29975709,1.56193 0.82992389,2.1425 a 0.26481289,0.26481289 0 1 0 0.3906731,-0.3576 c -0.4417324,-0.48373 -0.6934993,-1.11957 -0.6934993,-1.7849 0,-0.67632 0.2597599,-1.32 0.7152031,-1.80661 a 0.26460985,0.26460985 0 0 0 -0.181901,-0.44958 z m 5.7929278,0.43408 h 0.5296826 v 0.52916 H 7.7196688 Z m 2.6468682,0 h 0.529167 v 0.52916 h -0.529167 z m 2.644283,0 h 0.529166 v 0.52916 H 13.01082 Z m -10.502202,0.0837 a 0.26460985,0.26460985 0 0 0 -0.1793188,0.0842 c -0.4262966,0.44063 -0.6702425,1.03174 -0.6702425,1.65416 0,0.62124 0.2433691,1.21379 0.6681761,1.65416 a 0.26460985,0.26460985 0 1 0 0.3808546,-0.3669 c -0.3303218,-0.34243 -0.5193481,-0.80373 -0.5193481,-1.28726 2.7e-6,-0.48444 0.1899312,-0.94463 0.5214171,-1.28726 A 0.26460985,0.26460985 0 0 0 2.508618,282.56278 Z m 0.6283854,0.51005 a 0.26460982,0.26460982 0 0 0 -0.030491,0.002 0.26460982,0.26460982 0 0 0 -0.1581282,0.0744 c -0.3167618,0.29975 -0.4960938,0.71628 -0.4960938,1.15238 0,0.43591 0.179586,0.85473 0.4960938,1.15446 a 0.26537697,0.26537697 0 1 0 0.3653525,-0.38499 c -0.2111507,-0.19996 -0.3322796,-0.47866 -0.3322796,-0.76947 0,-0.29093 0.1209596,-0.56793 0.3322796,-0.76791 a 0.26460982,0.26460982 0 0 0 -0.1767333,-0.46082 z m 0.6294173,0.71675 c -0.2891155,0 -0.5291667,0.24005 -0.5291667,0.52917 0,0.28911 0.2400512,0.52916 0.5291667,0.52916 0.2891182,0 0.5296853,-0.24005 0.5296853,-0.52916 0,-0.28912 -0.2405671,-0.52917 -0.5296853,-0.52917 z m 3.6623096,0.27699 a 0.26460982,0.26460982 0 0 0 -0.2382282,0.26355 v 1.05885 a 0.26460982,0.26460982 0 0 0 0.2635489,0.26355 h 1.0588519 a 0.26460982,0.26460982 0 0 0 0.2656152,-0.26355 v -1.05885 A 0.26460982,0.26460982 0 0 0 8.5129029,284.06663 H 7.454051 a 0.26460982,0.26460982 0 0 0 -0.025321,0 z m 2.6463497,0 a 0.26460982,0.26460982 0 0 0 -0.2382282,0.26355 v 1.05885 a 0.26460982,0.26460982 0 0 0 0.2635512,0.26355 h 1.058849 a 0.26460982,0.26460982 0 0 0 0.263549,-0.26355 v -1.05885 a 0.26460982,0.26460982 0 0 0 -0.263549,-0.26355 h -1.058849 a 0.26460982,0.26460982 0 0 0 -0.02532,0 z m 2.644801,0 a 0.26460982,0.26460982 0 0 0 -0.238228,0.26355 v 1.05885 a 0.26460982,0.26460982 0 0 0 0.265615,0.26355 h 1.058334 a 0.26460982,0.26460982 0 0 0 0.263551,-0.26355 v -1.05885 a 0.26460982,0.26460982 0 0 0 -0.263551,-0.26355 h -1.058334 a 0.26460982,0.26460982 0 0 0 -0.02739,0 z m -5.0002122,0.52968 h 0.5296826 v 0.52917 H 7.7196688 Z m 2.6468682,0 h 0.529167 v 0.52917 h -0.529167 z m 2.644283,0 h 0.529166 v 0.52917 H 13.01082 Z m -5.556769,1.58543 a 0.26460982,0.26460982 0 0 0 -0.2635489,0.26614 v 1.05833 a 0.26460982,0.26460982 0 0 0 0.2635489,0.26355 h 1.0588519 a 0.26460982,0.26460982 0 0 0 0.2656152,-0.26355 v -1.05833 a 0.26460982,0.26460982 0 0 0 -0.2656152,-0.26614 z m 2.646352,0 a 0.26460982,0.26460982 0 0 0 -0.2635512,0.26614 v 1.05833 a 0.26460982,0.26460982 0 0 0 0.2635512,0.26355 h 1.058849 a 0.26460982,0.26460982 0 0 0 0.263549,-0.26355 v -1.05833 a 0.26460982,0.26460982 0 0 0 -0.263549,-0.26614 z m 2.646865,0 a 0.26460982,0.26460982 0 0 0 -0.265615,0.26614 v 1.05833 a 0.26460982,0.26460982 0 0 0 0.265615,0.26355 h 1.058334 a 0.26460982,0.26460982 0 0 0 0.263551,-0.26355 v -1.05833 a 0.26460982,0.26460982 0 0 0 -0.263551,-0.26614 z m -5.0275992,0.52969 h 0.5296826 v 0.52916 H 7.7196688 Z m 2.6468682,0 h 0.529167 v 0.52916 h -0.529167 z m 2.644283,0 h 0.529166 v 0.52916 H 13.01082 Z m -2.380734,2.3828 c -1.604246,0 -2.9104172,1.30565 -2.9104172,2.9099 0,1.60424 1.3061712,2.91041 2.9104172,2.91041 1.604245,0 2.9099,-1.30617 2.9099,-2.91041 0,-1.60425 -1.305655,-2.9099 -2.9099,-2.9099 z m 0,0.5271 c 1.318262,0 2.380734,1.06454 2.380734,2.3828 0,1.31826 -1.062472,2.38125 -2.380734,2.38125 -1.3182632,0 -2.3807346,-1.06299 -2.3807346,-2.38125 0,-1.31826 1.0624714,-2.3828 2.3807346,-2.3828 z m 0,0.55087 c -0.6596382,0 -1.1816535,0.55064 -1.189591,1.19527 -0.00479,0.38537 0.174207,0.73282 0.4614708,0.9555 l 0.0016,0.77876 c 9.8e-5,0.39976 0.3264322,0.73278 0.7265702,0.73278 0.400137,0 0.728556,-0.333 0.728638,-0.73278 v -0.9157 c 0.235109,-0.2247 0.462505,-0.47933 0.462503,-0.81287 0,-0.65866 -0.535088,-1.20096 -1.191141,-1.20096 z m 0,0.52916 c 0.366784,0 0.661974,0.29587 0.661974,0.6718 3e-6,0.24148 -0.127066,0.4641 -0.33228,0.58446 a 0.26460982,0.26460982 0 0 0 -0.130741,0.22841 v 0.9157 c -2.4e-5,0.11912 -0.08608,0.20309 -0.198953,0.20309 -0.112874,0 -0.199441,-0.0839 -0.199472,-0.20309 v -0.91777 a 0.26460982,0.26460982 0 0 0 -0.130742,-0.22841 c -0.209346,-0.12162 -0.3354462,-0.32747 -0.3322792,-0.58239 0.0045,-0.36223 0.2992942,-0.6718 0.6624932,-0.6718 z" />
    </g>
</svg>